<?xml version="1.0" encoding="UTF-8" ?>
<!DOCTYPE svg PUBLIC "-//W3C//DTD SVG 1.1//EN" "http://www.w3.org/Graphics/SVG/1.1/DTD/svg11.dtd">
<svg width="286pt" height="400pt" viewBox="0 0 286 400" version="1.1" xmlns="http://www.w3.org/2000/svg">
<path fill="#ffffff" d=" M 0.00 0.00 L 286.00 0.00 L 286.00 400.00 L 0.00 400.00 L 0.00 0.00 Z" />
<path fill="#939393" d=" M 139.28 59.80 C 140.42 60.34 141.58 60.84 142.67 61.48 C 144.13 65.72 143.60 70.30 143.81 74.71 C 144.14 82.31 143.81 89.92 144.29 97.51 C 149.70 98.56 155.22 99.45 160.32 101.63 C 164.42 103.37 167.96 106.23 172.20 107.68 C 176.01 108.96 179.35 111.23 182.94 112.99 C 182.99 113.42 183.07 114.29 183.11 114.72 C 181.63 114.57 180.15 114.42 178.68 114.28 C 178.99 115.17 179.30 116.07 179.62 116.96 C 182.15 117.72 184.58 118.83 186.72 120.42 C 190.48 123.16 195.17 125.45 196.80 130.14 C 197.44 130.68 198.09 131.21 198.74 131.75 C 202.19 137.37 205.00 143.43 209.29 148.49 C 213.26 148.00 217.28 148.00 221.26 148.42 C 225.30 148.92 229.33 148.13 233.37 148.00 C 231.91 148.64 230.44 149.27 228.97 149.90 C 234.02 149.61 239.09 149.79 244.16 149.58 C 240.59 149.34 237.02 149.21 233.46 148.83 C 238.03 147.79 243.00 146.89 247.57 148.30 C 251.17 149.98 251.69 154.03 251.16 157.53 C 250.61 157.50 249.51 157.45 248.95 157.42 C 249.05 158.13 249.15 158.84 249.25 159.54 C 247.41 160.97 245.66 162.55 243.61 163.67 C 239.64 164.79 235.39 162.99 231.44 164.19 C 230.18 165.74 229.31 167.58 227.92 169.03 C 225.63 170.98 222.47 170.91 219.65 171.23 C 219.56 171.69 219.36 172.62 219.27 173.08 C 218.97 173.04 218.36 172.96 218.06 172.92 C 217.59 171.92 217.11 170.92 216.64 169.92 C 216.10 169.75 215.03 169.41 214.49 169.24 C 216.80 176.16 214.82 183.85 211.38 190.05 C 210.02 192.54 209.21 195.53 206.75 197.21 C 204.96 201.36 202.57 205.21 200.11 208.98 C 198.63 211.25 196.01 212.30 193.78 213.67 C 193.66 214.44 193.54 215.21 193.41 215.99 C 190.88 218.01 188.31 219.99 185.77 222.01 C 186.32 223.93 185.19 225.38 183.65 226.36 C 184.04 226.91 184.43 227.47 184.82 228.03 C 183.63 228.83 182.43 229.63 181.24 230.42 C 181.13 231.91 181.03 233.42 180.95 234.92 C 180.03 233.12 179.02 231.30 177.35 230.08 C 172.79 226.48 169.64 221.51 165.45 217.53 C 161.87 214.05 157.89 210.23 157.14 205.04 C 157.23 201.05 160.10 197.80 160.76 193.93 C 162.00 186.60 161.67 178.85 164.94 172.00 C 168.52 173.01 172.20 173.56 175.91 173.75 C 175.32 174.66 174.74 175.57 174.17 176.49 C 175.22 176.33 176.28 176.23 177.34 176.09 C 177.28 175.14 177.22 174.20 177.16 173.25 C 184.84 172.58 192.57 174.08 200.20 172.91 C 198.45 171.22 196.80 168.74 194.01 169.16 C 184.27 169.52 174.64 167.47 164.88 167.97 C 164.96 167.21 165.10 165.67 165.17 164.90 C 183.99 164.82 202.82 165.26 221.64 165.03 C 221.74 164.30 221.93 162.84 222.03 162.11 C 209.68 161.86 197.34 162.14 184.99 162.01 C 178.30 161.72 171.60 161.39 164.90 161.42 C 164.89 160.43 164.89 159.44 164.89 158.45 C 168.59 158.99 172.26 158.16 175.94 157.97 C 189.03 157.69 202.18 158.68 215.22 157.21 C 219.29 156.81 223.37 157.28 227.42 157.67 C 230.63 158.09 233.54 155.93 236.75 156.32 C 238.76 156.48 240.77 156.77 242.78 157.02 C 242.78 156.33 242.78 154.93 242.78 154.24 C 227.20 153.30 211.59 154.40 196.00 154.00 C 188.90 153.59 181.89 155.18 174.80 154.78 C 175.42 152.04 176.13 149.21 177.94 146.99 C 180.39 143.57 185.69 142.12 189.24 144.66 C 190.67 146.43 191.48 148.61 192.87 150.40 C 196.51 151.77 200.48 150.77 204.15 150.00 C 203.10 146.07 201.69 142.04 198.27 139.54 C 198.21 141.49 198.18 143.43 198.16 145.38 C 199.25 145.67 200.34 145.96 201.44 146.26 C 199.64 146.40 197.84 146.52 196.04 146.65 C 195.91 145.52 195.79 144.40 195.66 143.27 C 194.46 143.08 193.25 142.90 192.05 142.72 C 193.56 141.50 195.08 140.29 196.59 139.08 C 195.52 136.09 194.86 132.81 192.74 130.34 C 188.39 125.45 183.08 121.34 176.97 118.92 C 177.18 123.27 179.91 127.14 179.51 131.56 C 179.22 135.43 179.05 139.35 178.22 143.15 C 177.29 147.30 174.52 150.65 171.96 153.91 C 169.87 154.04 167.78 154.18 165.69 154.34 C 166.76 154.77 167.85 155.20 168.93 155.62 C 165.94 155.59 162.82 156.01 160.91 158.57 C 161.40 157.19 162.37 155.84 162.27 154.33 C 161.04 149.60 156.82 146.59 154.64 142.40 C 153.55 137.85 153.68 133.06 152.05 128.62 C 149.69 129.39 147.42 131.22 144.84 130.91 C 144.07 129.76 143.68 128.36 143.81 126.97 C 143.60 125.19 146.06 125.79 147.16 125.30 C 145.36 123.54 142.72 121.91 143.03 119.02 C 143.08 112.69 142.06 106.27 143.29 100.00 C 141.93 99.55 140.58 99.09 139.23 98.64 C 137.38 106.25 140.09 114.19 138.20 121.76 C 135.71 124.38 131.94 125.92 130.56 129.49 C 127.44 137.17 125.26 145.23 121.66 152.70 C 120.50 155.37 117.53 156.22 115.15 157.43 C 113.44 156.06 111.64 154.20 109.22 154.66 C 99.96 155.53 90.64 154.49 81.39 155.40 C 84.36 156.16 87.38 156.70 90.41 157.24 C 79.30 156.32 68.16 156.84 57.04 156.14 C 51.18 155.87 45.30 156.49 39.45 155.94 C 40.96 154.62 42.81 153.73 44.85 153.83 C 60.47 153.77 76.11 154.50 91.71 153.44 C 95.80 153.32 99.89 153.49 103.98 153.70 C 103.56 152.74 103.15 151.78 102.74 150.82 C 101.79 150.79 100.84 150.76 99.89 150.73 C 100.45 149.83 101.00 148.93 101.56 148.04 C 100.15 147.83 98.75 147.61 97.34 147.40 C 96.54 149.03 95.72 150.66 94.88 152.27 C 95.27 150.29 94.44 147.59 96.36 146.26 C 97.86 145.40 99.69 145.60 101.36 145.40 C 101.44 145.04 101.62 144.32 101.71 143.95 C 102.97 143.91 104.24 143.89 105.51 143.86 C 103.35 137.95 103.23 131.45 104.12 125.28 C 106.10 117.91 112.38 112.92 117.41 107.58 C 116.93 106.77 116.45 105.97 115.98 105.16 C 123.01 101.79 130.15 97.81 138.14 97.63 C 138.66 85.82 138.68 73.93 136.99 62.21 C 138.21 62.65 139.43 63.09 140.66 63.53 C 140.19 62.29 139.73 61.04 139.28 59.80 Z" />
<path fill="#939393" d=" M 120.94 89.66 C 123.39 90.77 125.28 92.70 126.41 95.13 C 124.29 93.63 122.44 91.79 120.94 89.66 Z" />
<path fill="#939393" d=" M 127.52 96.23 C 128.41 95.10 130.34 96.60 129.44 97.73 C 128.55 98.86 126.61 97.36 127.52 96.23 Z" />
<path fill="#939393" d=" M 153.28 97.09 C 156.26 95.55 153.42 100.42 153.28 97.09 Z" />
<path fill="#939393" d=" M 163.38 97.17 C 164.78 96.73 165.27 97.21 164.83 98.61 C 163.43 99.05 162.95 98.57 163.38 97.17 Z" />
<path fill="#939393" d=" M 167.10 100.29 C 170.43 100.45 165.53 103.25 167.10 100.29 Z" />
<path fill="#ffffff" d=" M 146.21 104.83 C 151.51 105.66 156.67 107.31 160.82 110.80 C 174.94 117.30 179.84 137.95 169.91 149.97 C 168.86 151.48 166.25 151.57 165.16 150.06 C 162.90 147.43 160.53 144.82 158.74 141.84 C 157.39 136.81 158.00 131.24 155.42 126.55 C 153.52 123.04 149.88 121.15 147.00 118.59 C 146.27 116.19 148.58 114.83 150.02 113.39 C 149.14 113.59 148.27 113.80 147.40 114.01 C 146.93 110.96 146.51 107.90 146.21 104.83 Z" />
<path fill="#939393" d=" M 172.14 105.41 C 173.54 104.98 174.02 105.46 173.59 106.86 C 172.18 107.30 171.70 106.82 172.14 105.41 Z" />
<path fill="#ffffff" d=" M 125.90 110.36 C 127.70 108.84 129.49 107.29 131.27 105.73 C 131.73 107.61 132.17 109.49 132.63 111.36 C 132.80 110.49 133.13 108.74 133.30 107.87 C 133.70 107.90 134.49 107.97 134.89 108.01 C 134.75 111.83 135.10 115.72 134.27 119.48 C 131.99 123.30 127.90 125.90 126.42 130.24 C 123.80 137.60 120.62 144.75 118.37 152.24 C 113.70 150.64 112.77 145.38 110.21 141.74 C 105.73 135.01 107.09 125.92 111.34 119.42 C 114.27 113.68 120.02 110.44 125.56 107.67 C 125.65 108.35 125.82 109.69 125.90 110.36 Z" />
<path fill="#939393" d=" M 105.48 110.99 C 107.84 109.00 110.93 108.38 113.74 109.85 C 111.09 110.79 108.28 111.07 105.48 110.99 Z" />
<path fill="#939393" d=" M 130.67 112.26 C 131.82 111.25 133.71 113.17 132.70 114.32 C 131.54 115.32 129.66 113.40 130.67 112.26 Z" />
<path fill="#939393" d=" M 96.58 113.94 C 97.83 114.04 99.08 114.14 100.33 114.24 C 99.25 115.43 98.17 116.61 97.05 117.76 C 98.78 117.59 100.78 116.62 102.24 118.04 C 99.15 122.02 94.84 124.83 91.20 128.27 C 90.68 127.23 90.15 126.19 89.63 125.15 C 90.96 125.26 92.30 125.38 93.64 125.50 C 91.78 123.26 89.83 121.10 87.86 118.96 C 89.89 119.60 91.92 120.25 93.96 120.90 C 94.50 120.38 95.04 119.86 95.58 119.34 C 95.09 118.47 94.61 117.61 94.12 116.74 C 94.82 116.60 95.51 116.47 96.21 116.34 C 96.33 115.54 96.45 114.74 96.58 113.94 Z" />
<path fill="#939393" d=" M 102.45 118.16 C 104.05 116.15 106.26 114.85 108.65 113.98 C 107.57 116.61 105.21 117.96 102.45 118.16 Z" />
<path fill="#939393" d=" M 124.24 120.92 C 125.97 120.67 125.96 124.36 124.24 124.11 C 123.22 123.42 123.22 121.59 124.24 120.92 Z" />
<path fill="#939393" d=" M 88.14 122.44 C 89.52 121.96 90.01 122.43 89.62 123.84 C 88.23 124.33 87.73 123.86 88.14 122.44 Z" />
<path fill="#939393" d=" M 170.27 122.53 C 171.39 121.59 172.90 123.51 171.78 124.41 C 170.65 125.35 169.13 123.43 170.27 122.53 Z" />
<path fill="#939393" d=" M 85.14 125.30 C 88.47 125.51 83.54 128.25 85.14 125.30 Z" />
<path fill="#939393" d=" M 111.69 127.21 C 113.89 127.48 116.07 127.84 118.23 128.34 C 115.90 129.21 113.09 129.92 111.69 127.21 Z" />
<path fill="#939393" d=" M 84.33 127.69 C 85.07 129.71 85.80 131.74 86.50 133.78 C 85.23 133.17 83.97 132.55 82.71 131.92 C 82.06 132.95 81.40 133.98 80.74 135.02 C 82.15 135.11 83.55 135.20 84.96 135.29 C 83.42 136.27 81.90 137.26 80.37 138.26 C 80.48 139.51 80.58 140.77 80.68 142.02 C 79.84 140.99 79.00 139.95 78.18 138.91 C 78.41 142.16 77.34 145.20 75.82 148.01 C 74.68 149.82 75.94 151.76 76.53 153.52 C 75.42 153.06 74.30 152.61 73.18 152.16 C 73.38 142.72 80.41 135.72 84.33 127.69 Z" />
<path fill="#939393" d=" M 87.27 128.24 C 88.12 126.84 90.48 128.27 89.44 129.64 C 88.60 131.07 86.23 129.60 87.27 128.24 Z" />
<path fill="#939393" d=" M 110.13 131.70 C 111.33 130.84 112.63 132.93 111.44 133.72 C 110.23 134.58 108.93 132.49 110.13 131.70 Z" />
<path fill="#939393" d=" M 113.59 132.74 C 114.43 134.44 115.20 136.17 115.94 137.91 C 115.32 137.86 114.08 137.76 113.47 137.71 C 113.50 136.05 113.54 134.39 113.59 132.74 Z" />
<path fill="#939393" d=" M 136.24 133.66 C 138.19 133.77 137.05 137.26 135.38 136.36 C 134.42 135.58 135.07 133.81 136.24 133.66 Z" />
<path fill="#939393" d=" M 112.01 140.45 C 113.20 139.94 114.40 139.44 115.59 138.94 C 115.50 140.03 115.42 141.13 115.33 142.23 C 114.22 141.64 113.11 141.05 112.01 140.45 Z" />
<path fill="#939393" d=" M 189.18 140.37 C 190.65 139.21 192.29 141.76 190.79 142.74 C 189.32 143.90 187.69 141.35 189.18 140.37 Z" />
<path fill="#939393" d=" M 68.09 143.10 C 69.43 143.29 70.75 143.61 72.07 143.90 C 72.02 144.43 71.91 145.50 71.86 146.04 C 70.57 146.75 69.28 147.46 67.98 148.17 C 69.64 148.88 71.27 149.70 72.74 150.76 C 63.91 151.81 55.00 150.50 46.15 151.23 C 42.34 151.49 38.91 153.29 35.58 155.00 C 36.69 157.23 36.87 160.84 39.98 161.14 C 46.89 162.21 53.89 160.30 60.86 160.68 C 59.64 161.59 58.54 162.93 56.91 163.06 C 51.89 163.71 46.83 163.14 41.79 163.07 C 42.84 163.74 43.88 164.40 44.92 165.06 C 41.62 165.17 37.67 165.53 35.41 162.56 C 32.22 159.58 34.00 154.83 36.15 151.83 C 40.03 147.92 46.03 148.77 51.00 149.11 C 56.08 149.80 61.19 149.30 66.25 148.82 C 66.61 146.85 66.67 144.66 68.09 143.10 Z" />
<path fill="#939393" d=" M 192.11 145.12 C 193.52 144.66 193.99 145.13 193.53 146.54 C 192.13 146.99 191.65 146.52 192.11 145.12 Z" />
<path fill="#939393" d=" M 257.46 150.35 C 260.02 149.38 263.55 149.61 264.89 152.38 C 265.11 154.18 265.76 156.86 263.60 157.71 C 260.20 160.07 256.74 156.69 253.98 154.91 C 255.05 153.32 256.03 151.64 257.46 150.35 Z" />
<path fill="#939393" d=" M 20.67 154.89 C 22.30 152.98 25.26 150.43 27.78 152.28 C 29.42 153.37 30.40 155.13 31.56 156.67 C 28.98 158.66 26.90 162.39 23.15 161.77 C 19.62 161.97 18.53 157.14 20.67 154.89 Z" />
<path fill="#939393" d=" M 270.54 151.86 C 272.03 151.45 273.58 151.35 275.11 151.16 C 275.06 153.02 275.00 154.89 274.95 156.76 C 274.38 156.99 273.25 157.45 272.68 157.68 C 271.41 156.97 270.14 156.25 268.88 155.53 C 269.39 154.29 269.86 153.02 270.54 151.86 Z" />
<path fill="#939393" d=" M 9.81 159.80 C 11.42 156.75 14.10 154.53 17.61 154.16 C 17.22 156.28 18.01 159.49 15.49 160.49 C 13.57 160.70 11.68 160.13 9.81 159.80 Z" />
<path fill="#939393" d=" M 111.54 159.55 C 113.60 159.03 113.84 161.31 114.29 162.71 C 109.19 164.08 104.13 162.14 99.02 162.07 C 94.56 161.88 90.07 162.10 85.66 162.81 C 77.37 164.13 68.98 163.12 60.68 162.48 C 65.11 160.16 70.18 160.87 74.99 160.93 C 87.18 160.81 99.36 160.17 111.54 159.55 Z" />
<path fill="#939393" d=" M 114.81 158.63 C 116.36 159.27 117.91 159.89 119.47 160.51 C 118.17 161.05 116.88 161.60 115.59 162.16 C 115.40 161.27 115.01 159.51 114.81 158.63 Z" />
<path fill="#939393" d=" M 61.43 160.27 C 61.94 160.77 61.94 160.77 61.43 160.27 Z" />
<path fill="#939393" d=" M 186.52 163.07 C 187.66 162.13 188.29 162.39 188.42 163.84 C 187.28 164.78 186.65 164.52 186.52 163.07 Z" />
<path fill="#939393" d=" M 57.80 164.00 C 59.29 165.21 60.67 166.60 62.38 167.51 C 69.13 169.28 76.06 167.17 82.85 168.10 C 83.04 167.61 83.23 167.12 83.42 166.64 C 95.34 166.45 107.25 165.98 119.17 166.13 C 118.98 166.60 118.60 167.54 118.41 168.01 C 116.73 168.77 115.03 169.48 113.35 170.24 C 117.85 172.55 122.41 175.38 124.63 180.15 C 123.73 180.27 122.83 180.39 121.93 180.51 C 123.47 189.95 126.09 199.19 129.11 208.26 C 129.97 206.47 130.81 204.69 131.68 202.91 C 131.92 205.14 132.38 207.38 132.19 209.62 C 130.70 211.36 127.93 211.53 126.56 213.47 C 124.61 216.24 123.03 219.27 120.99 222.00 C 117.65 226.51 115.35 231.74 111.56 235.93 C 108.12 232.16 105.05 228.07 102.49 223.65 C 99.95 218.77 94.09 217.41 90.65 213.36 C 85.49 207.52 80.03 201.78 76.18 194.95 C 72.68 187.69 70.41 179.82 69.49 171.82 C 65.95 171.52 62.30 171.83 58.84 170.89 C 57.40 168.90 57.94 166.29 57.80 164.00 Z" />
<path fill="#ffffff" d=" M 72.56 170.46 C 75.09 170.39 77.63 170.33 80.16 170.29 C 80.95 172.60 81.45 176.56 84.67 176.34 C 92.53 175.91 100.40 176.36 108.26 176.26 C 108.06 176.78 107.67 177.83 107.48 178.35 C 105.20 180.27 103.67 182.85 101.70 185.04 C 99.27 185.76 96.71 184.97 94.26 184.68 C 94.26 186.27 94.12 187.86 94.33 189.44 C 95.52 191.13 97.76 189.40 99.37 189.37 C 98.68 193.20 97.94 197.03 97.00 200.81 C 97.65 200.19 98.30 199.57 98.96 198.96 C 98.72 203.40 98.62 207.85 98.30 212.29 C 91.74 206.29 85.37 199.82 81.11 191.93 C 77.67 185.01 76.45 177.20 72.56 170.46 Z" />
<path fill="#939393" d=" M 66.20 173.43 C 67.44 172.14 68.96 174.48 67.81 175.49 C 66.57 176.76 65.06 174.43 66.20 173.43 Z" />
<path fill="#ffffff" d=" M 197.93 177.22 C 199.78 177.23 201.43 176.29 203.06 175.54 C 203.17 176.00 203.37 176.94 203.47 177.41 C 204.71 176.94 205.94 176.48 207.18 176.03 C 205.95 189.78 198.59 202.60 188.19 211.50 C 188.22 206.50 188.81 201.47 188.17 196.49 C 187.55 192.77 185.82 189.36 184.65 185.81 C 185.91 187.19 187.16 188.58 188.44 189.95 C 187.04 184.02 180.98 181.37 178.58 176.02 C 185.04 176.21 191.45 177.41 197.93 177.22 Z" />
<path fill="#ffffff" d=" M 104.24 193.39 C 106.12 186.53 109.84 179.84 115.65 175.56 C 115.36 179.53 114.95 183.49 114.71 187.47 C 116.06 186.87 117.41 186.27 118.77 185.68 C 119.19 187.68 119.83 189.67 119.87 191.73 C 117.71 194.06 115.30 196.20 113.77 199.04 C 114.95 197.98 116.10 196.89 117.25 195.80 C 118.15 196.85 119.06 197.91 119.96 198.98 C 119.71 197.29 119.47 195.60 119.34 193.90 C 121.32 195.31 121.36 197.94 121.98 200.08 C 122.61 203.33 123.67 206.54 123.84 209.86 C 120.02 215.80 116.80 222.12 112.54 227.77 C 111.07 225.10 109.31 222.61 107.35 220.28 C 107.84 219.60 108.32 218.92 108.81 218.25 C 107.92 218.33 107.03 218.41 106.14 218.50 C 103.31 210.49 101.90 201.71 104.24 193.39 Z" />
<path fill="#ffffff" d=" M 167.29 180.21 C 167.79 178.50 168.79 177.01 169.69 175.49 C 172.35 177.76 175.09 180.03 177.15 182.89 C 179.20 185.72 179.50 189.30 180.73 192.49 C 181.94 196.02 183.87 199.43 183.88 203.26 C 183.97 210.27 182.28 217.40 178.42 223.31 C 178.05 220.76 177.73 218.20 177.43 215.64 C 176.11 215.87 174.79 216.10 173.47 216.36 C 170.11 213.16 168.25 208.77 164.88 205.58 C 164.26 197.05 165.17 188.48 167.29 180.21 Z" />
<path fill="#939393" d=" M 87.18 179.14 C 89.32 179.32 91.45 179.50 93.59 179.68 C 93.46 181.02 93.32 182.36 93.19 183.70 C 91.48 183.16 89.77 182.62 88.05 182.09 C 87.76 181.11 87.47 180.12 87.18 179.14 Z" />
<path fill="#939393" d=" M 82.12 208.44 C 83.52 208.00 84.00 208.48 83.56 209.88 C 82.16 210.32 81.68 209.84 82.12 208.44 Z" />
<path fill="#939393" d=" M 108.69 209.12 C 109.48 207.93 111.57 209.21 110.72 210.43 C 109.93 211.61 107.84 210.33 108.69 209.12 Z" />
<path fill="#939393" d=" M 160.50 215.12 C 161.91 214.69 162.39 215.17 161.93 216.57 C 160.53 217.00 160.05 216.51 160.50 215.12 Z" />
<path fill="#939393" d=" M 162.36 220.14 C 163.77 219.70 164.25 220.19 163.81 221.59 C 162.40 222.02 161.92 221.53 162.36 220.14 Z" />
<path fill="#939393" d=" M 158.86 222.79 C 165.28 226.22 170.36 231.60 175.20 236.92 C 177.74 239.41 176.36 243.25 177.86 246.19 C 179.25 249.20 180.32 252.36 181.78 255.35 C 183.87 259.01 186.36 262.65 186.99 266.92 C 187.21 270.11 186.78 273.31 186.60 276.49 C 184.36 277.91 182.24 279.64 179.70 280.51 C 176.68 281.19 172.93 280.79 170.95 278.13 C 166.04 271.88 164.40 263.76 159.45 257.52 C 157.54 266.28 159.55 275.26 159.68 284.11 C 159.70 292.22 160.38 300.35 159.63 308.45 C 159.26 312.45 159.94 316.51 159.11 320.48 C 158.59 323.10 158.10 325.72 157.73 328.37 C 158.26 328.42 159.32 328.52 159.85 328.56 C 159.89 331.10 159.99 333.63 160.00 336.16 C 159.46 335.10 158.91 334.04 158.33 333.01 C 157.71 335.55 157.68 338.71 155.34 340.39 C 152.89 342.63 149.41 342.70 146.32 343.22 C 146.44 342.52 146.68 341.11 146.80 340.40 C 145.67 341.24 144.54 342.08 143.42 342.93 C 142.08 341.01 140.98 338.93 140.28 336.69 C 139.45 337.48 138.61 338.26 137.77 339.04 C 138.12 335.79 138.62 332.57 139.14 329.35 C 138.39 329.23 136.88 328.98 136.12 328.86 C 137.22 327.56 138.62 326.44 139.29 324.84 C 139.13 320.98 137.49 317.21 138.40 313.31 C 139.37 308.14 139.47 302.87 139.09 297.63 C 138.12 297.50 137.15 297.36 136.18 297.23 C 137.03 294.17 138.27 291.12 138.16 287.89 C 137.28 278.91 135.67 269.95 136.31 260.90 C 134.97 261.17 133.63 261.46 132.29 261.75 C 132.54 263.13 132.78 264.52 133.00 265.91 C 133.23 266.54 133.46 267.18 133.70 267.83 C 132.83 267.73 131.96 267.64 131.09 267.55 C 130.42 273.05 126.64 277.22 123.52 281.52 C 120.35 283.35 115.48 285.96 112.48 282.49 C 109.90 280.03 107.48 276.31 108.72 272.62 C 110.88 265.80 113.67 259.15 115.15 252.13 C 115.91 248.11 117.60 244.14 116.93 239.98 C 116.54 238.30 118.32 237.37 119.27 236.33 C 122.89 233.25 125.91 229.53 129.70 226.64 C 126.62 239.41 122.13 251.78 118.32 264.35 C 117.14 268.04 116.47 271.88 116.17 275.75 C 116.96 276.03 117.75 276.32 118.54 276.61 C 126.21 260.85 132.11 244.30 139.32 228.35 C 141.63 233.88 140.54 240.01 141.66 245.79 C 142.35 245.74 143.73 245.65 144.43 245.60 C 143.49 246.13 142.56 246.66 141.63 247.19 C 142.80 266.19 145.11 285.10 145.48 304.14 C 145.23 307.58 147.36 310.25 150.45 311.48 C 150.98 302.99 149.92 294.50 149.97 286.01 C 150.09 267.14 149.48 248.26 150.26 229.41 C 154.66 234.07 156.98 240.19 160.35 245.56 C 162.94 251.71 167.90 256.47 170.26 262.73 C 172.09 266.98 173.90 272.32 179.10 273.31 C 178.59 267.38 175.14 262.40 172.97 257.02 C 168.19 245.63 162.38 234.68 158.86 222.79 Z" />
<path fill="#939393" d=" M 142.19 225.54 C 143.69 225.46 143.62 227.92 142.19 227.93 C 140.68 228.01 140.77 225.55 142.19 225.54 Z" />
<path fill="#939393" d=" M 141.62 229.44 C 143.79 229.70 145.95 230.05 148.10 230.46 C 147.13 231.02 146.26 231.84 145.15 232.11 C 143.88 231.35 142.77 230.37 141.62 229.44 Z" />
<path fill="#939393" d=" M 142.60 232.77 C 143.20 235.21 143.02 237.73 142.41 240.16 C 142.35 237.69 142.40 235.22 142.60 232.77 Z" />
<path fill="#939393" d=" M 162.12 264.24 C 165.45 264.44 160.53 267.20 162.12 264.24 Z" />
<path fill="#939393" d=" M 136.12 284.24 C 139.45 284.44 134.53 287.20 136.12 284.24 Z" />
<path fill="#939393" d=" M 137.12 301.55 C 138.57 301.68 138.82 302.31 137.88 303.45 C 136.43 303.32 136.18 302.68 137.12 301.55 Z" />
<path fill="#ffffff" d=" M 143.69 315.94 C 145.51 313.63 148.21 313.51 150.86 314.21 C 150.55 316.52 150.20 318.84 149.78 321.15 C 147.51 319.72 145.46 317.96 143.69 315.94 Z" />
<path fill="#939393" d=" M 136.14 314.23 C 139.47 314.44 134.54 317.17 136.14 314.23 Z" />
<path fill="#ffffff" d=" M 145.32 327.61 C 145.81 325.60 146.35 323.59 146.94 321.60 C 148.08 323.23 149.17 324.91 150.19 326.63 C 148.57 326.97 146.94 327.30 145.32 327.61 Z" />
<path fill="#939393" d=" M 159.10 323.28 C 162.43 323.43 157.56 326.26 159.10 323.28 Z" />
<path fill="#ffffff" d=" M 146.46 330.47 C 147.55 330.37 148.64 330.27 149.74 330.17 C 149.73 331.81 149.72 333.45 149.71 335.09 C 148.21 334.40 146.72 333.71 145.24 333.01 C 145.64 332.16 146.05 331.31 146.46 330.47 Z" />
</svg>
